<?xml version="1.0" encoding="UTF-8" standalone="no"?>
<svg
   xmlns:dc="http://purl.org/dc/elements/1.1/"
   xmlns:cc="http://creativecommons.org/ns#"
   xmlns:rdf="http://www.w3.org/1999/02/22-rdf-syntax-ns#"
   xmlns:svg="http://www.w3.org/2000/svg"
   xmlns="http://www.w3.org/2000/svg"
   xmlns:sodipodi="http://sodipodi.sourceforge.net/DTD/sodipodi-0.dtd"
   xmlns:inkscape="http://www.inkscape.org/namespaces/inkscape"
   version="1.1"
   id="svg2"
   xml:space="preserve"
   width="702.77332"
   height="702.77332"
   viewBox="0 0 702.77332 702.77332"
   sodipodi:docname="shire_logo.eps"><metadata
     id="metadata8"><rdf:RDF><cc:Work
         rdf:about=""><dc:format>image/svg+xml</dc:format><dc:type
           rdf:resource="http://purl.org/dc/dcmitype/StillImage" /></cc:Work></rdf:RDF></metadata><defs
     id="defs6" /><sodipodi:namedview
     pagecolor="#ffffff"
     bordercolor="#666666"
     borderopacity="1"
     objecttolerance="10"
     gridtolerance="10"
     guidetolerance="10"
     inkscape:pageopacity="0"
     inkscape:pageshadow="2"
     inkscape:window-width="640"
     inkscape:window-height="480"
     id="namedview4" /><g
     id="g10"
     inkscape:groupmode="layer"
     inkscape:label="ink_ext_XXXXXX"
     transform="matrix(1.3333333,0,0,-1.3333333,0,702.77333)"><g
       id="g12"
       transform="scale(0.1)"><path
         d="M 40,40 H 5230.78 V 5230.78 H 40 Z M 5270.78,0 H 0 V 5270.78 H 5270.78 V 0"
         style="fill:#231f20;fill-opacity:1;fill-rule:nonzero;stroke:none"
         id="path14" /><path
         d="m 4784.69,3764.63 c -50,-184.18 -122.69,-356.02 -216.07,-510.75 -91.89,-152.27 -201.35,-283.97 -325.34,-391.44 -117.36,-101.71 -244.94,-179.23 -379.58,-230.69 -134.65,51.46 -262.23,128.98 -379.58,230.69 -124,107.47 -233.46,239.17 -325.35,391.44 -93.37,154.73 -166.08,326.57 -216.08,510.75 -51.87,191.08 -78.18,391.57 -78.18,595.93 0,156.1 15.41,310.3 45.89,459.72 126.7,-52.95 284.53,-82.41 448.28,-82.41 189.44,0 370.45,39.3 505.02,108.77 134.56,-69.47 315.56,-108.77 505.01,-108.77 163.76,0 321.57,29.46 448.29,82.41 30.47,-149.42 45.88,-303.62 45.88,-459.72 0,-204.36 -26.3,-404.85 -78.19,-595.93 z m 85.7,1168.13 c -120.94,-72.17 -300.81,-117.94 -501.68,-117.94 -202.74,0 -384.07,46.62 -505.01,119.95 -120.95,-73.33 -302.29,-119.95 -505.02,-119.95 -200.87,0 -380.75,45.77 -501.67,117.94 -45.09,-180.42 -69.46,-372.67 -69.46,-572.19 0,-863.19 455.5,-1590.42 1076.15,-1810.83 620.64,220.41 1076.13,947.64 1076.13,1810.83 0,199.52 -24.36,391.77 -69.44,572.19"
         style="fill:#231f20;fill-opacity:1;fill-rule:nonzero;stroke:none"
         id="path16" /><path
         d="m 4465.08,3316.36 c -3.91,-6.5 -7.91,-12.9 -11.89,-19.32 -0.58,-0.93 -1.14,-1.87 -1.73,-2.8 -28.1,-45 -57.81,-87.99 -89.11,-128.79 -1.8,-2.34 -3.62,-4.62 -5.43,-6.94 -59.05,-76.08 -123.53,-144.6 -192.85,-204.69 -93.8,-81.3 -194.72,-145.62 -300.37,-191.49 -105.67,45.87 -206.59,110.19 -300.37,191.49 -104.02,90.15 -197.13,199.22 -277.33,324.54 -1.1,1.72 -2.22,3.44 -3.31,5.17 -6.88,10.83 -13.7,21.75 -20.38,32.83 -21.07,34.91 -41.22,71.19 -60.25,108.46 153.5,42.39 323,69.23 500,79.41 53.28,3.06 107.21,4.68 161.64,4.68 73.39,0 145.96,-2.82 217.16,-8.37 65.9,-5.15 130.57,-12.71 193.66,-22.47 15.52,-2.41 30.96,-4.94 46.29,-7.62 70.62,-12.35 139.05,-27.55 204.52,-45.63 -10.08,-19.74 -20.49,-39.17 -31.16,-58.29 -1.42,-2.54 -2.87,-5.04 -4.29,-7.57 -8.13,-14.38 -16.36,-28.63 -24.8,-42.6 z M 3990,3583.11 c -0.62,28.39 -1.21,56.79 -1.77,85.19 -0.39,19.29 -0.68,38.57 -1.07,57.86 -0.81,40.47 -2.43,80.94 3.51,121.25 6.94,47.13 29,85.55 67.61,113.22 18.47,13.25 39.41,23.03 59.04,34.69 9.08,5.39 18.89,6.98 29.06,7.02 35.89,0.11 71.82,-1.12 107.64,0.33 40.74,1.66 75.57,17.71 102.41,49.25 14.39,16.9 24.22,36.14 29.07,57.82 -1.16,-1.46 -1.86,-3.13 -2.57,-4.81 -14.44,-34.6 -38.92,-58.8 -74.79,-70.38 -23.7,-7.65 -48.07,-6.18 -72.29,-2.49 -11.47,1.75 -22.84,4.12 -35.4,6.42 139.07,94.18 186.65,279.4 190.56,359.62 -10.66,-50.6 -24.35,-92.99 -41.51,-128.64 -22.08,-45.83 -62.21,-104.83 -75.89,-111.5 19.03,69.73 26.62,140.75 24.71,212.88 -0.49,-1.07 -0.65,-2.19 -0.79,-3.32 -2.87,-24.62 -4.9,-49.38 -8.76,-73.84 -9.08,-57.54 -25.4,-113.03 -50.14,-165.88 -1.84,-3.93 -4.94,-7.74 -8.4,-10.38 -21.99,-16.82 -46.45,-29.12 -72.59,-38.09 -11.27,-3.86 -22.71,-7.21 -35,-11.08 0.9,2.65 1.28,4 1.82,5.29 16.74,40.32 27.07,82.43 30.84,125.7 3.89,44.84 5.46,89.9 7.14,134.91 1.68,45.05 3.81,89.99 13.64,134.17 7.95,35.73 19.56,69.99 41.76,99.77 2.78,3.73 5.78,7.29 8.68,10.92 -2.44,-0.49 -4.32,-1.56 -5.56,-3.13 -9.83,-12.42 -20.9,-24.12 -29.05,-37.57 -26.41,-43.56 -38.55,-92.18 -46,-141.88 -7.34,-49.03 -12.58,-98.38 -19.24,-147.52 -2.53,-18.59 -6.5,-36.99 -9.67,-54.75 -21.35,91.16 -42.74,182.5 -64.12,273.85 -1.05,-1.37 -1.03,-2.54 -0.85,-3.69 4.2,-28.07 8.44,-56.15 12.59,-84.24 6.12,-41.42 12.23,-82.85 18.21,-124.29 4.82,-33.39 9.03,-66.85 7.75,-100.72 -1.1,-29.19 -7.13,-56.61 -25.96,-80.24 -14.26,-17.89 -27.27,-36.72 -47.04,-49.43 -28.49,-18.31 -50.91,-42.56 -68.01,-71.74 -3.26,-5.54 -6.38,-11.15 -10.37,-18.12 -3.63,4.36 -7.13,7.4 -9.17,11.23 -10.58,19.95 -21.14,39.93 -30.92,60.28 -3.06,6.35 -4.1,13.81 -5.34,20.88 -7.3,41.7 -3.34,82.96 5.16,124.01 9.4,45.46 26.23,88.48 43.19,131.44 16.26,41.16 32.53,82.3 43.51,125.29 2.11,8.23 3.8,16.57 5.68,24.87 -5.03,-10.58 -7.86,-21.87 -12.69,-32.23 -20.97,-44.9 -42.05,-89.77 -64.01,-134.21 -20.94,-42.4 -39.63,-85.55 -50.53,-131.75 -1.12,-4.74 -2.27,-9.46 -3.4,-14.19 -2.29,10.28 -4.07,20.29 -4.31,30.33 -0.83,37.32 -2.44,74.7 -1.32,111.98 1.18,39.21 5.12,78.35 7.91,117.51 2.7,37.73 5.59,75.46 8.17,113.2 3.26,47.66 3.15,95.33 -0.82,142.95 -0.75,9.04 -2.03,18.03 -2.57,22.74 -1.85,-35.03 -2.66,-74.32 -6.34,-113.32 -3.68,-39.01 -10.23,-77.76 -15.77,-118.39 -7.43,16.38 -13.05,30.76 -20.28,44.27 -16.52,30.83 -39.09,56.08 -70.83,72.04 -14.26,7.17 -29.35,11.56 -45.49,11.82 33.4,-8.75 59.3,-28.19 79.38,-55.66 29.16,-39.9 41.44,-85.49 42.43,-134.14 0.35,-16.43 -3.09,-32.96 -5.05,-49.42 -4.07,-33.94 -9.02,-67.78 -12.21,-101.8 -2.3,-24.44 -2.55,-49.07 -3.32,-73.64 -0.43,-13.86 -0.08,-27.74 -0.08,-39.54 -15.51,5.92 -32.36,13.56 -49.96,18.59 -11.01,3.15 -20.37,7.81 -29.12,14.79 -49.82,39.74 -84.77,90.54 -109.37,148.66 -31.84,75.18 -44.96,153.92 -42.18,235.4 0.1,3.13 0.12,6.27 0.14,9.4 0.03,3.12 0.01,6.23 0.01,9.34 -19.25,-146.63 3.83,-284.18 87.78,-409.58 -17.87,1.95 -35.6,3.78 -52.73,8.04 -28.67,7.14 -52.26,24.23 -74.96,42.28 -23.39,18.6 -46,38.19 -69.49,56.65 -27.12,21.29 -56.36,38.74 -90.88,45.42 -20.92,4.05 -41.11,2.17 -62.38,-7.93 6.96,1.18 11.85,2.28 16.79,2.81 23.71,2.54 45.19,-4.39 65.67,-15.6 31.38,-17.17 56.13,-42.18 80.23,-67.91 26.68,-28.49 52.05,-58.28 82.8,-82.69 2.67,-2.12 5.31,-4.29 9.01,-7.29 -105,-19.13 -192.44,-65.62 -257.35,-150.39 1.23,1.1 2.51,2.16 3.69,3.32 40.17,39.42 87.56,66.58 141.3,82.77 30.58,9.21 61.98,13.53 93.83,15.41 32.8,1.94 65.49,1.63 98.08,-2.52 43.61,-5.57 84.53,-19.8 124.49,-37.82 27.89,-12.58 46.89,-32.4 59.45,-59.99 35.33,-77.56 46.87,-159.06 43.35,-243.56 -1.72,-41.51 -5.87,-82.73 -11.14,-123.83 -1.18,0 -2.36,0.01 -3.54,0.01 -286.1,0 -551.44,-41.87 -769.95,-113.31 30.7,-67.96 64.93,-133.43 102.67,-195.96 89.5,-148.32 195.99,-276.48 316.5,-380.93 108.78,-94.29 226.72,-167.14 350.78,-216.7 124.05,49.56 241.99,122.41 350.77,216.7 120.51,104.45 227,232.61 316.5,380.93 14.28,23.67 28.06,47.75 41.33,72.24 2.68,0.47 5.35,1.01 8.04,1.68 -1.17,0.37 -2.37,0.53 -3.52,0.35 -1.23,-0.19 -2.44,-0.28 -3.65,-0.42 21.47,39.7 41.64,80.43 60.47,122.11 -185.98,60.81 -405.89,100.17 -643.64,110.55"
         style="fill:#231f20;fill-opacity:1;fill-rule:nonzero;stroke:none"
         id="path18" /><path
         d="m 3809.24,4398.77 c -18.34,41.25 -59.67,63.89 -92.1,64.68 -13.37,-47.6 29.43,-136.11 80.1,-165.68 22.58,23.25 27.71,65.67 12,101"
         style="fill:#231f20;fill-opacity:1;fill-rule:nonzero;stroke:none"
         id="path20" /><path
         d="m 3386.79,4294.34 c 20.01,29.89 23.17,61.61 9.02,94.5 -15.02,34.94 -42.25,55.43 -79.51,64.08 -14.34,-57.72 22.14,-139.28 70.49,-158.58"
         style="fill:#231f20;fill-opacity:1;fill-rule:nonzero;stroke:none"
         id="path22" /><path
         d="m 3311.25,4271.3 c -59.38,37.89 -147.05,5.99 -164.19,-51.79 55.13,-16.57 125.68,0.03 164.19,51.79"
         style="fill:#231f20;fill-opacity:1;fill-rule:nonzero;stroke:none"
         id="path24" /><path
         d="m 3545.61,4316.28 c -20.24,-26.04 -25.9,-54.81 -15.61,-86.12 10.75,-32.66 33.53,-53.43 65.88,-64.4 19.09,55.63 -1.43,115.89 -50.27,150.52"
         style="fill:#231f20;fill-opacity:1;fill-rule:nonzero;stroke:none"
         id="path26" /><path
         d="m 4023.74,4217.37 c -1.61,0.62 -3.3,1.39 -5.06,1.94 -44.74,13.74 -98.09,-16.87 -108.97,-62.47 -4.81,-20.2 -2.12,-38.94 10.02,-56.17 46.84,28.36 82.18,66.25 104.01,116.7"
         style="fill:#231f20;fill-opacity:1;fill-rule:nonzero;stroke:none"
         id="path28" /><path
         d="m 3524.43,3904.98 c 45.74,39.23 61.49,89.95 52.83,141.78 -24.98,-0.94 -58.23,-23.38 -70.11,-55.98 -11.52,-31.65 -4.27,-68.64 17.28,-85.8"
         style="fill:#231f20;fill-opacity:1;fill-rule:nonzero;stroke:none"
         id="path30" /><path
         d="m 3560.59,4397.34 c 4.87,61.59 -59.37,109.8 -117.73,100.42 9.32,-56.79 61.89,-97.17 117.73,-100.42"
         style="fill:#231f20;fill-opacity:1;fill-rule:nonzero;stroke:none"
         id="path32" /><path
         d="m 3932.1,4542.09 c -56.77,-21.13 -78.91,-97.57 -40.84,-142.88 55.22,38.04 62.22,102.94 40.84,142.88"
         style="fill:#231f20;fill-opacity:1;fill-rule:nonzero;stroke:none"
         id="path34" /><path
         d="m 4491.53,4009.55 c -36.22,39.33 -116.63,42.2 -156.38,5.23 44.85,-44.27 121.66,-38.62 156.38,-5.23"
         style="fill:#231f20;fill-opacity:1;fill-rule:nonzero;stroke:none"
         id="path36" /><path
         d="m 3461.14,4402.36 c -31.85,-47.75 -28.25,-101.11 1.66,-142.37 28.2,19.7 41.67,46.3 38.23,80.05 -2.75,27.01 -16.37,47.97 -39.89,62.32"
         style="fill:#231f20;fill-opacity:1;fill-rule:nonzero;stroke:none"
         id="path38" /><path
         d="m 3723.69,4372.62 c -55.36,-9.57 -95.82,-70.37 -79.61,-121.36 52.59,10.26 94.84,66.04 79.61,121.36"
         style="fill:#231f20;fill-opacity:1;fill-rule:nonzero;stroke:none"
         id="path40" /><path
         d="m 3543.56,4111.88 c -24.51,50.17 -105.4,62.89 -146.97,24 40.66,-38.39 103.71,-44.05 146.97,-24"
         style="fill:#231f20;fill-opacity:1;fill-rule:nonzero;stroke:none"
         id="path42" /><path
         d="m 3423.32,3993.1 c -12.32,-21.79 -14.12,-44.08 -3.33,-67.36 47.68,22.36 78.34,57.09 87.96,109.35 -33.21,4.63 -68.13,-12.79 -84.63,-41.99"
         style="fill:#231f20;fill-opacity:1;fill-rule:nonzero;stroke:none"
         id="path44" /><path
         d="m 3687.86,4032.15 c -43.6,18.11 -99.47,-18.77 -100.21,-65.83 -0.21,-13.6 2.9,-25.97 11.59,-36.46 40.12,25.32 69.82,58.85 88.62,102.29"
         style="fill:#231f20;fill-opacity:1;fill-rule:nonzero;stroke:none"
         id="path46" /><path
         d="m 3281.57,4219.66 c -12.2,-19.12 -16.81,-39.71 -10.1,-62.39 52.53,16.2 86.41,48.42 96.98,103.32 -31.66,4.77 -68.91,-12.74 -86.88,-40.93"
         style="fill:#231f20;fill-opacity:1;fill-rule:nonzero;stroke:none"
         id="path48" /><path
         d="m 4181.05,4528.4 c 27.71,51.19 -2.01,107.62 -43.74,125.36 -25.14,-41.06 -6.52,-103.6 43.74,-125.36"
         style="fill:#231f20;fill-opacity:1;fill-rule:nonzero;stroke:none"
         id="path50" /><path
         d="m 4375.93,4250.15 c 24.36,-11.77 63.61,-6.04 88.53,12.75 19.02,14.36 31.11,32.68 33.09,57.18 -47.72,0.95 -96.3,-19.25 -121.62,-69.93"
         style="fill:#231f20;fill-opacity:1;fill-rule:nonzero;stroke:none"
         id="path52" /><path
         d="m 4043.88,4348.87 c -62.21,-3.38 -100.46,-56.2 -95.37,-96.27 51.14,-0.26 99.53,48.26 95.37,96.27"
         style="fill:#231f20;fill-opacity:1;fill-rule:nonzero;stroke:none"
         id="path54" /><path
         d="m 4246.14,4562.19 c -20.32,-11.38 -34.08,-28.18 -38.94,-51.74 44.45,-7.04 97.81,9.18 128.63,54.78 -30.91,14.46 -60.73,13.17 -89.69,-3.04"
         style="fill:#231f20;fill-opacity:1;fill-rule:nonzero;stroke:none"
         id="path56" /><path
         d="m 4297.27,4394.44 c 34.99,31.86 37.06,91.58 -1.78,126.85 -39.13,-34.96 -34.27,-99.06 1.78,-126.85"
         style="fill:#231f20;fill-opacity:1;fill-rule:nonzero;stroke:none"
         id="path58" /><path
         d="m 4278.91,4389.88 c -49.06,6.32 -101.98,-30.97 -106.18,-79.2 45.57,-6.26 101.08,27.91 106.18,79.2"
         style="fill:#231f20;fill-opacity:1;fill-rule:nonzero;stroke:none"
         id="path60" /><path
         d="m 4028.13,4061.8 c 37.48,31.88 37.34,93.55 0.99,125.19 -38.46,-34.13 -36.45,-94.37 -0.99,-125.19"
         style="fill:#231f20;fill-opacity:1;fill-rule:nonzero;stroke:none"
         id="path62" /><path
         d="m 3783.08,4119.15 c 26.4,34.32 19.56,93.23 -27.54,121.82 -29,-36.66 -14.64,-100.21 27.54,-121.82"
         style="fill:#231f20;fill-opacity:1;fill-rule:nonzero;stroke:none"
         id="path64" /><path
         d="m 3697.25,4502.91 c -22.97,6.31 -57.62,-7.75 -74.51,-29.87 -14.72,-19.27 -19.8,-40.36 -12.13,-64.47 46.16,16.22 76.13,45.96 86.64,94.34"
         style="fill:#231f20;fill-opacity:1;fill-rule:nonzero;stroke:none"
         id="path66" /><path
         d="m 3435.82,4427.11 c 15.83,40.65 -17.26,95.96 -63.54,105.62 -14.52,-47.06 19.07,-95.5 63.54,-105.62"
         style="fill:#231f20;fill-opacity:1;fill-rule:nonzero;stroke:none"
         id="path68" /><path
         d="m 3835.74,4616.92 c 10.04,23.98 7.04,46.14 -7,66.76 -15.01,22.05 -36.52,32.91 -62.97,34.96 -1.58,-46.11 28.05,-84.93 69.97,-101.72"
         style="fill:#231f20;fill-opacity:1;fill-rule:nonzero;stroke:none"
         id="path70" /><path
         d="m 3269.43,3833.11 c 44.56,28.14 55.47,79.11 40.21,113.16 -58.36,-22.01 -64.87,-85.09 -40.21,-113.16"
         style="fill:#231f20;fill-opacity:1;fill-rule:nonzero;stroke:none"
         id="path72" /><path
         d="m 3362.92,3977.8 c -35.09,-28.62 -35.51,-89.13 -1.2,-119.3 34.1,29.8 37.04,85.04 1.2,119.3"
         style="fill:#231f20;fill-opacity:1;fill-rule:nonzero;stroke:none"
         id="path74" /><path
         d="m 4398.18,4332.71 c 47.12,4.34 85.31,52.21 76.83,95.71 -47.77,-5.37 -83.87,-50.12 -76.83,-95.71"
         style="fill:#231f20;fill-opacity:1;fill-rule:nonzero;stroke:none"
         id="path76" /><path
         d="m 3746.28,4562.42 c 20.3,39.45 -2.37,94.49 -45.69,110.1 -21.99,-43.67 5.24,-96.18 45.69,-110.1"
         style="fill:#231f20;fill-opacity:1;fill-rule:nonzero;stroke:none"
         id="path78" /><path
         d="m 4396.63,4412.15 c 34.21,29.07 34.27,86.96 0.12,117.06 -33.77,-27.85 -35.85,-86.22 -0.12,-117.06"
         style="fill:#231f20;fill-opacity:1;fill-rule:nonzero;stroke:none"
         id="path80" /><path
         d="m 3884.32,4254.63 c 39.29,29.8 48.97,78.16 34.47,112.35 -47.95,-12.71 -67.4,-75.46 -34.47,-112.35"
         style="fill:#231f20;fill-opacity:1;fill-rule:nonzero;stroke:none"
         id="path82" /><path
         d="m 4048.69,4735.46 c -40.87,-6.97 -79.38,-46.74 -70.33,-97.07 52.06,9.27 81,59.06 70.33,97.07"
         style="fill:#231f20;fill-opacity:1;fill-rule:nonzero;stroke:none"
         id="path84" /><path
         d="m 3246.63,4053.94 c 29.18,-29.61 76.76,-40.61 121.06,-27.57 -12.36,43.95 -86.86,60.91 -121.06,27.57"
         style="fill:#231f20;fill-opacity:1;fill-rule:nonzero;stroke:none"
         id="path86" /><path
         d="m 4334.61,4271.72 c 12.94,7.33 27.43,34.99 22.45,61.7 -4.09,21.83 -22.52,45.76 -39.86,49.82 -19.6,-36.79 -12.2,-84.11 17.41,-111.52"
         style="fill:#231f20;fill-opacity:1;fill-rule:nonzero;stroke:none"
         id="path88" /><path
         d="m 3222.15,3963.44 c 39.73,-15.71 89.95,-5.79 119.86,25.59 -35.01,30.85 -104.17,16.6 -119.86,-25.59"
         style="fill:#231f20;fill-opacity:1;fill-rule:nonzero;stroke:none"
         id="path90" /><path
         d="m 3578.72,4554.42 c 29.98,28.54 37.89,75.71 14.13,113.01 -21.86,-12.35 -34.52,-30.86 -36.84,-55.77 -2.12,-22.7 5.81,-41.8 22.71,-57.24"
         style="fill:#231f20;fill-opacity:1;fill-rule:nonzero;stroke:none"
         id="path92" /><path
         d="m 3741.73,4233.48 c 8.07,21.17 5.45,41.34 -7.54,60.13 -36.57,-22.35 -54.88,-64.61 -45.13,-105.21 25.54,6.23 43.44,20.84 52.67,45.08"
         style="fill:#231f20;fill-opacity:1;fill-rule:nonzero;stroke:none"
         id="path94" /><path
         d="m 3908.64,4035.35 c -3.74,-23.47 3.64,-43.62 22.78,-59.46 29.42,32.95 34.75,75.73 18.52,110.09 -22.88,-9.52 -37.42,-26.24 -41.3,-50.63"
         style="fill:#231f20;fill-opacity:1;fill-rule:nonzero;stroke:none"
         id="path96" /><path
         d="m 4116.07,4317.05 c 32.42,31.5 27.49,84.03 -4.24,109.03 -30.44,-28.61 -29.37,-81.68 4.24,-109.03"
         style="fill:#231f20;fill-opacity:1;fill-rule:nonzero;stroke:none"
         id="path98" /><path
         d="m 3562.93,4489.66 c 9.13,46.3 -38.02,84.92 -80.1,78.57 3.71,-38.12 39.5,-73.37 80.1,-78.57"
         style="fill:#231f20;fill-opacity:1;fill-rule:nonzero;stroke:none"
         id="path100" /><path
         d="m 3907.91,4558.3 c 44.21,18.13 57.3,71.31 38.42,99.89 -41.65,-17.53 -57.12,-67.38 -38.42,-99.89"
         style="fill:#231f20;fill-opacity:1;fill-rule:nonzero;stroke:none"
         id="path102" /><path
         d="m 4063.5,4489.14 c 29.72,40.28 7.15,90.52 -21.22,103.91 -25.17,-30.09 -14.73,-81.99 21.22,-103.91"
         style="fill:#231f20;fill-opacity:1;fill-rule:nonzero;stroke:none"
         id="path104" /><path
         d="m 4489.73,4110.11 c -46.46,11.26 -91.43,-18.69 -99.56,-53.15 42.73,-10.33 91.99,16.14 99.56,53.15"
         style="fill:#231f20;fill-opacity:1;fill-rule:nonzero;stroke:none"
         id="path106" /><path
         d="m 4319.98,4663 c -44.46,7.27 -87.77,-31.78 -81.11,-73.12 40.63,3.26 78.01,38.14 81.11,73.12"
         style="fill:#231f20;fill-opacity:1;fill-rule:nonzero;stroke:none"
         id="path108" /><path
         d="m 4379.54,4128.61 c 34.7,19.52 45.23,72.58 20.06,102.72 -37.56,-23.61 -43.88,-73.93 -20.06,-102.72"
         style="fill:#231f20;fill-opacity:1;fill-rule:nonzero;stroke:none"
         id="path110" /><path
         d="m 4248.41,4311.77 c -45.86,-2.08 -78.65,-40.56 -75.75,-76.04 35.46,-1.83 79.01,32.85 75.75,76.04"
         style="fill:#231f20;fill-opacity:1;fill-rule:nonzero;stroke:none"
         id="path112" /><path
         d="m 3327.06,4290.49 c 9.23,17.75 5.26,38.97 -10.08,55.35 -16.74,17.86 -44.96,24.22 -66.68,14.63 17.17,-33.06 43.15,-55.65 76.76,-69.98"
         style="fill:#231f20;fill-opacity:1;fill-rule:nonzero;stroke:none"
         id="path114" /><path
         d="m 3812.12,4516.84 c 29.11,25.2 26.75,83.38 -4.07,100.59 -28.1,-26.48 -26.1,-75.8 4.07,-100.59"
         style="fill:#231f20;fill-opacity:1;fill-rule:nonzero;stroke:none"
         id="path116" /><path
         d="m 4329.06,4156.82 c -10.7,-31.4 -11.46,-62.98 -1.93,-94.79 23.62,4.84 38.8,26.81 37.05,53.63 -1.21,18.64 -17.23,39.46 -35.12,41.16"
         style="fill:#231f20;fill-opacity:1;fill-rule:nonzero;stroke:none"
         id="path118" /><path
         d="m 3677.49,4407.87 c -23.21,-1.32 -41.5,-11.36 -53.6,-31.26 -9.95,-16.37 -11.17,-33.74 -3.23,-51.51 31.42,8.94 62.37,54.02 56.83,82.77"
         style="fill:#231f20;fill-opacity:1;fill-rule:nonzero;stroke:none"
         id="path120" /><path
         d="m 4085.61,4481.08 c -11.54,-16.69 -12.64,-39.6 -3.11,-53.77 32.73,13.8 58.05,50.01 56.69,81.95 -23.03,0.25 -40.7,-9.55 -53.58,-28.18"
         style="fill:#231f20;fill-opacity:1;fill-rule:nonzero;stroke:none"
         id="path122" /><path
         d="m 3868.5,4693.94 c 11.33,16.19 14.18,33.68 8.04,52.43 -6.74,20.56 -20.93,33.68 -41.28,40.62 -13.41,-31.46 2.88,-77.1 33.24,-93.05"
         style="fill:#231f20;fill-opacity:1;fill-rule:nonzero;stroke:none"
         id="path124" /><path
         d="m 3702.76,4531.68 c 5.57,-35.59 47.85,-62.16 87.44,-55.27 -5.08,35.18 -49.44,63.47 -87.44,55.27"
         style="fill:#231f20;fill-opacity:1;fill-rule:nonzero;stroke:none"
         id="path126" /><path
         d="m 4213.6,4140.29 c 21.91,10.25 33.3,27.41 34.05,50.62 0.6,18.77 -7.33,34.26 -23.16,45.29 -21.58,-26.5 -27.34,-61.4 -10.89,-95.91"
         style="fill:#231f20;fill-opacity:1;fill-rule:nonzero;stroke:none"
         id="path128" /><path
         d="m 4476.48,4172.07 c -42.74,3.82 -79.57,-31.49 -79.19,-63.34 37.03,-4.75 79.02,28.84 79.19,63.34"
         style="fill:#231f20;fill-opacity:1;fill-rule:nonzero;stroke:none"
         id="path130" /><path
         d="m 4018.01,4275.66 c -7.9,-34.04 23.21,-74.36 60.65,-78.05 9.02,37.43 -26.48,76.69 -60.65,78.05"
         style="fill:#231f20;fill-opacity:1;fill-rule:nonzero;stroke:none"
         id="path132" /><path
         d="m 3379.74,4046.37 c 16.25,14.31 21.25,32.35 15.8,52.75 -5.58,20.89 -19.75,33.95 -41.04,39.83 -10.45,-28.42 1.94,-73.12 25.24,-92.58"
         style="fill:#231f20;fill-opacity:1;fill-rule:nonzero;stroke:none"
         id="path134" /><path
         d="m 4004.51,4625.96 c -31.58,-16.47 -41.59,-62.03 -19.95,-92.5 32.47,18.4 42.74,64.38 19.95,92.5"
         style="fill:#231f20;fill-opacity:1;fill-rule:nonzero;stroke:none"
         id="path136" /><path
         d="m 4089.31,4688.17 c -27.82,-19.46 -29.84,-66.78 -3.66,-92.63 28.33,22.84 30.01,70.11 3.66,92.63"
         style="fill:#231f20;fill-opacity:1;fill-rule:nonzero;stroke:none"
         id="path138" /><path
         d="m 4253.56,4447.69 c -37.69,8.69 -76.48,-23.18 -71.74,-59.52 34.9,3.62 67.58,30.88 71.74,59.52"
         style="fill:#231f20;fill-opacity:1;fill-rule:nonzero;stroke:none"
         id="path140" /><path
         d="m 3702.45,4558.67 c -10.31,28.83 -51,49.21 -88.85,36.54 13.75,-34.54 59.66,-48.83 88.85,-36.54"
         style="fill:#231f20;fill-opacity:1;fill-rule:nonzero;stroke:none"
         id="path142" /><path
         d="m 4295.45,4000.87 c 2.73,-36.98 53.61,-59.19 86.52,-37.93 -22.79,27.59 -51.51,39.64 -86.52,37.93"
         style="fill:#231f20;fill-opacity:1;fill-rule:nonzero;stroke:none"
         id="path144" /><path
         d="m 4239.85,4039.9 c 36.14,-8.93 74.75,25.25 66.99,58.78 -33.4,-5.29 -61.6,-29.86 -66.99,-58.78"
         style="fill:#231f20;fill-opacity:1;fill-rule:nonzero;stroke:none"
         id="path146" /><path
         d="m 3399.99,4225.99 c -17.12,-3.15 -30.54,-12.02 -37.99,-29.31 32.53,-9.17 62.73,-6.01 92.19,11.47 -15.11,17.13 -33.58,21.65 -54.2,17.84"
         style="fill:#231f20;fill-opacity:1;fill-rule:nonzero;stroke:none"
         id="path148" /><path
         d="m 3644.18,4521.8 c 2.21,6.61 2.7,13.8 4.15,21.7 -19.19,-1.95 -34.32,-8.48 -46.33,-21.25 -8.19,-8.71 -14.71,-18.54 -15.47,-31.01 -0.43,-7.08 1.38,-13.22 7.04,-15.94 5.95,3.49 10.6,6.8 15.71,9.1 16.93,7.63 29.01,19.78 34.9,37.4"
         style="fill:#231f20;fill-opacity:1;fill-rule:nonzero;stroke:none"
         id="path150" /><path
         d="m 4011.04,4432.77 c -13.54,-29.76 3.57,-66.86 35.64,-78.07 13.96,28.68 -3.4,67.12 -35.64,78.07"
         style="fill:#231f20;fill-opacity:1;fill-rule:nonzero;stroke:none"
         id="path152" /><path
         d="m 3949.7,4364.69 c 22.67,20.44 22.58,59.37 -0.18,77.81 -23.14,-18.01 -23.04,-60.23 0.18,-77.81"
         style="fill:#231f20;fill-opacity:1;fill-rule:nonzero;stroke:none"
         id="path154" /><path
         d="m 4022.6,4524.76 c -33.61,-13.84 -40.47,-52.71 -28.05,-71.57 28.48,12.26 41.47,44.9 28.05,71.57"
         style="fill:#231f20;fill-opacity:1;fill-rule:nonzero;stroke:none"
         id="path156" /><path
         d="m 4152.67,4090.76 c 28.81,7.44 47.39,41.74 36.1,67.42 -31.14,-9.45 -46.92,-43.2 -36.1,-67.42"
         style="fill:#231f20;fill-opacity:1;fill-rule:nonzero;stroke:none"
         id="path158" /><path
         d="m 3941.59,4734.3 c -28.67,-2.87 -50.14,-30.03 -45.86,-58.44 33.68,5.14 51.8,36.96 45.86,58.44"
         style="fill:#231f20;fill-opacity:1;fill-rule:nonzero;stroke:none"
         id="path160" /><path
         d="m 3933.23,3211.32 -50.43,25.41 c -42.15,21.13 -69.26,37.15 -81.36,48.04 -12.34,10.74 -18.49,26.86 -18.49,48.44 0,18.01 6.57,33.3 19.75,45.92 13.14,12.57 31.03,18.86 53.62,18.86 32.17,0 59.53,-12.46 82.02,-37.37 22.49,-24.91 38.2,-54.61 47.12,-89.08 h 19.03 v 148.8 h -20.35 c -1.76,-7.12 -4.07,-12.85 -6.9,-17.18 -2.84,-4.34 -7.98,-6.51 -15.41,-6.51 -3.3,0 -16.48,3.78 -39.53,11.34 -23.11,7.57 -46.98,11.34 -71.7,11.34 -48.57,0 -84.6,-14.45 -108.1,-43.42 -23.52,-28.91 -35.28,-60.05 -35.28,-93.47 0,-31.36 8.87,-57.71 26.64,-79.13 17.77,-21.35 48.23,-42.92 91.41,-64.77 l 43.54,-22.02 c 27.02,-13.57 44.98,-24.58 53.85,-33.03 13.4,-12.96 20.1,-29.64 20.1,-50.1 0,-17.57 -6.42,-34.31 -19.24,-50.27 -12.84,-15.9 -34.47,-23.85 -64.91,-23.85 -31.34,0 -59.11,11.56 -83.35,34.75 -24.25,23.19 -41.82,60.33 -52.69,111.38 h -19.68 v -169.15 h 19.68 c 1.98,7.56 4.25,13.4 6.9,17.51 2.61,4.12 7.42,6.18 14.42,6.18 1.97,0 4.4,-0.28 7.24,-0.84 2.83,-0.55 5.78,-1.27 8.87,-2.17 l 13.11,-5 c 13.57,-5.34 27.31,-9.28 41.18,-11.84 13.9,-2.56 27.64,-3.84 41.2,-3.84 59.06,0 102.01,15.29 128.81,45.82 26.8,30.58 40.2,63.11 40.2,97.53 0,36.92 -12.48,68.28 -37.47,94.02 -13.38,13.79 -31.31,26.36 -53.8,37.7"
         style="fill:#231f20;fill-opacity:1;fill-rule:nonzero;stroke:none"
         id="path162" /><path
         d="m 391.133,1532.02 v -133.98 c 0,-50.43 22.379,-71.83 52.871,-71.83 33.269,0 54.98,22.16 54.98,71.83 v 133.98 h 29.352 v -131.9 c 0,-69.51 -36.535,-97.87 -85.559,-97.87 -46.144,0 -81,26.34 -81,96.59 v 133.18 h 29.356"
         style="fill:#231f20;fill-opacity:1;fill-rule:nonzero;stroke:none"
         id="path164" /><path
         d="m 578.879,1305.95 v 226.07 h 32.101 l 72.422,-114.26 c 16.524,-26.52 29.657,-50.28 40.336,-73.61 l 0.742,0.34 c -2.644,30.19 -3.175,57.75 -3.175,92.78 v 94.75 h 27.496 v -226.07 h -29.66 l -71.856,114.59 c -15.57,25.33 -30.777,51.11 -42.058,75.69 l -0.997,-0.34 c 1.743,-28.65 2.141,-55.9 2.141,-93.27 v -96.67 h -27.492"
         style="fill:#231f20;fill-opacity:1;fill-rule:nonzero;stroke:none"
         id="path166" /><path
         d="m 828.895,1532.02 v -226.07 h -29.352 v 226.07 h 29.352"
         style="fill:#231f20;fill-opacity:1;fill-rule:nonzero;stroke:none"
         id="path168" /><path
         d="m 929.551,1305.95 -74.039,226.07 h 31.734 l 35.121,-111.45 c 9.707,-30.49 18.082,-58.05 24.18,-84.37 h 0.789 c 6.324,26.13 15.598,54.58 25.738,84 l 38.236,111.82 h 31.21 l -80.762,-226.07 h -32.207"
         style="fill:#231f20;fill-opacity:1;fill-rule:nonzero;stroke:none"
         id="path170" /><path
         d="m 1183.82,1411.93 h -87.65 v -81.66 h 98.03 v -24.32 h -127.38 v 226.07 h 122.22 v -24.33 h -92.87 v -71.59 h 87.65 v -24.17"
         style="fill:#231f20;fill-opacity:1;fill-rule:nonzero;stroke:none"
         id="path172" /><path
         d="m 1260.99,1426.01 h 29.84 c 31.25,0 51.04,17.02 51.04,42.93 0,29.36 -21.18,42.11 -51.98,42.16 -14.16,0 -23.95,-1.29 -28.9,-2.57 z m -29.18,102.9 c 14.82,2.98 36.09,4.88 56.15,4.88 31,0 51.43,-5.9 65.52,-18.62 11.16,-9.89 17.74,-25.29 17.74,-42.96 0,-29.7 -18.97,-49.46 -42.62,-57.62 v -0.81 c 17.24,-6.06 27.66,-22.36 33.15,-45.79 7.44,-31.59 12.8,-53.21 17.39,-62.04 h -30.29 c -3.55,6.54 -8.66,25.81 -14.85,54.13 -6.71,30.94 -18.93,42.96 -45.37,43.83 h -27.64 v -97.96 h -29.18 v 222.96"
         style="fill:#231f20;fill-opacity:1;fill-rule:nonzero;stroke:none"
         id="path174" /><path
         d="m 1408.46,1341.52 c 13.05,-8.15 32.11,-14.65 52.17,-14.65 29.85,0 47.41,15.6 47.41,38.5 0,20.97 -12.25,33.31 -42.76,44.74 -36.89,13.08 -59.78,32.5 -59.78,64.13 0,35.19 29.26,61.3 73.29,61.3 22.95,0 40.01,-5.33 49.87,-10.92 l -8.15,-23.94 c -7.2,4.28 -22.34,10.73 -42.69,10.73 -31.05,0 -42.78,-18.4 -42.78,-33.8 0,-20.99 13.75,-31.35 44.96,-43.4 38.35,-15.04 57.66,-33.45 57.66,-66.59 0,-34.69 -25.55,-65.2 -79.12,-65.2 -21.86,0 -45.69,6.6 -57.75,14.75 l 7.67,24.35"
         style="fill:#231f20;fill-opacity:1;fill-rule:nonzero;stroke:none"
         id="path176" /><path
         d="m 1606.92,1532.02 v -226.07 h -29.36 v 226.07 h 29.36"
         style="fill:#231f20;fill-opacity:1;fill-rule:nonzero;stroke:none"
         id="path178" /><path
         d="M 1700.86,1507.35 H 1632 v 24.67 h 167.41 v -24.67 h -69.19 v -201.4 h -29.36 v 201.4"
         style="fill:#231f20;fill-opacity:1;fill-rule:nonzero;stroke:none"
         id="path180" /><path
         d="m 1884.36,1305.95 v 95.83 l -71.7,130.24 h 33.43 l 31.76,-62.45 c 8.61,-17.14 15.53,-30.83 22.47,-46.65 h 0.67 c 6.23,14.86 13.96,29.67 22.69,46.82 l 32.6,62.28 h 33.08 l -75.65,-129.79 v -96.28 h -29.35"
         style="fill:#231f20;fill-opacity:1;fill-rule:nonzero;stroke:none"
         id="path182" /><path
         d="m 2104,1417.67 c 0,-48.36 26.27,-91.67 72.32,-91.67 46.39,0 72.43,42.6 72.43,93.96 0,45.01 -23.48,92 -72.06,92 -48.53,0 -72.69,-44.83 -72.69,-94.29 z m 175.63,3.58 c 0,-77.58 -47.26,-119 -104.89,-119 -59.96,0 -101.62,46.42 -101.62,114.75 0,71.63 44.34,118.71 104.69,118.71 61.74,0 101.82,-47.29 101.82,-114.46"
         style="fill:#231f20;fill-opacity:1;fill-rule:nonzero;stroke:none"
         id="path184" /><path
         d="m 2317.35,1532.02 h 121.76 v -24.33 h -92.41 v -75.27 h 85.39 v -24.17 h -85.39 v -102.3 h -29.35 v 226.07"
         style="fill:#231f20;fill-opacity:1;fill-rule:nonzero;stroke:none"
         id="path186" /><path
         d="m 752.742,963 c -22.09,85.76 -58.469,170.22 -180.609,170.22 -101.352,0 -136.434,-74.06 -136.434,-141.63 0,-89.668 57.172,-135.149 165.02,-191.008 155.922,-80.562 223.492,-140.34 223.492,-263.773 0,-136.43 -118.242,-240.387 -285.859,-240.387 -77.961,0 -145.536,22.09 -198.805,42.887 -10.399,36.371 -25.992,124.73 -35.082,194.902 l 40.277,10.398 C 370.727,457.551 427.898,344.5 563.031,344.5 c 93.563,0 150.735,64.969 150.735,149.422 0,100.047 -53.274,140.34 -167.618,202.707 -136.437,74.062 -213.101,136.441 -213.101,257.273 0,115.638 96.156,224.798 267.672,224.798 72.761,0 144.226,-19.5 171.515,-24.7 5.2,-46.77 10.395,-98.75 20.793,-183.211 L 752.742,963"
         style="fill:#231f20;fill-opacity:1;fill-rule:nonzero;stroke:none"
         id="path188" /><path
         d="m 1840.27,1124.12 c -107.84,-10.4 -118.24,-16.89 -118.24,-126.038 V 477.039 c 0,-109.148 11.69,-113.047 118.24,-124.75 v -36.367 h -348.23 v 36.367 c 107.85,13 118.24,15.602 118.24,124.75 V 736.902 H 1165.9 V 477.039 c 0,-107.848 10.4,-111.75 116.95,-124.75 V 315.922 H 935.918 v 36.367 c 105.242,11.703 116.942,15.602 116.942,124.75 v 521.043 c 0,109.148 -11.7,115.638 -116.942,126.038 v 36.38 h 346.932 v -36.38 C 1178.9,1115.02 1165.9,1105.94 1165.9,998.082 V 791.48 h 444.38 v 206.602 c 0,107.858 -14.29,116.938 -118.24,126.038 v 36.38 h 348.23 v -36.38"
         style="fill:#231f20;fill-opacity:1;fill-rule:nonzero;stroke:none"
         id="path190" /><path
         d="m 1971.44,315.922 v 36.367 c 106.54,11.703 116.94,16.902 116.94,127.34 v 515.863 c 0,111.738 -10.4,116.938 -116.94,128.628 v 36.38 h 348.23 v -36.38 c -107.85,-11.69 -118.24,-16.89 -118.24,-128.628 V 479.629 c 0,-111.738 10.39,-115.637 118.24,-127.34 v -36.367 h -348.23"
         style="fill:#231f20;fill-opacity:1;fill-rule:nonzero;stroke:none"
         id="path192" /><path
         d="m 2741.92,727.82 c 67.57,0 110.45,10.391 142.93,37.68 50.68,37.68 71.47,89.652 71.47,159.813 0,139.037 -92.26,189.707 -192.31,189.707 -37.69,0 -59.77,-5.19 -68.87,-12.99 -11.69,-9.09 -15.58,-22.09 -15.58,-55.88 V 727.82 Z m 479.47,-422.3 c -16.89,0 -31.19,1.3 -48.08,2.601 -94.85,6.5 -145.53,31.188 -202.7,111.738 -48.08,66.27 -94.85,148.141 -136.44,214.403 -25.97,41.578 -42.87,49.367 -109.15,49.367 h -45.46 v -204 c 0,-110.438 14.29,-116.938 118.24,-127.34 v -36.367 h -346.93 v 36.367 c 107.84,11.703 116.94,16.902 116.94,127.34 v 518.453 c 0,110.438 -14.3,114.348 -116.94,126.038 v 36.38 h 331.33 c 94.86,0 158.53,-11.69 207.89,-44.17 53.28,-33.78 88.37,-92.26 88.37,-171.517 0,-111.743 -71.47,-181.911 -167.62,-223.493 23.39,-40.281 79.25,-127.351 118.24,-185.808 48.08,-68.871 72.77,-101.352 102.65,-133.832 35.08,-37.688 64.97,-51.969 94.86,-59.778 l -5.2,-36.382"
         style="fill:#231f20;fill-opacity:1;fill-rule:nonzero;stroke:none"
         id="path194" /><path
         d="m 3946.37,522.52 c -7.79,-33.79 -42.87,-167.618 -55.87,-206.598 h -631.49 v 36.367 c 120.84,9.113 129.94,20.793 129.94,127.34 v 513.25 c 0,115.641 -14.29,122.141 -111.74,131.241 v 36.38 h 397.6 c 122.14,0 172.81,1.31 188.41,2.6 1.3,-32.49 6.49,-129.94 11.7,-198.799 l -38.99,-6.5 c -11.7,44.179 -24.68,71.469 -38.98,98.749 -20.78,42.88 -50.68,51.97 -128.63,51.97 h -123.45 c -40.28,0 -42.87,-3.88 -42.87,-41.57 V 779.789 h 144.23 c 97.45,0 103.94,19.492 119.54,107.852 h 40.28 V 619.969 h -40.28 c -16.9,93.543 -27.29,106.551 -120.84,106.551 H 3502 V 467.941 c 0,-90.949 28.58,-98.75 93.54,-100.05 h 120.84 c 79.27,0 92.26,11.699 120.85,45.48 24.69,27.289 51.97,80.551 70.17,119.539 l 38.97,-10.39"
         style="fill:#231f20;fill-opacity:1;fill-rule:nonzero;stroke:none"
         id="path196" /></g></g></svg>
